<?xml version="1.0" encoding="UTF-8"?>
<svg xmlns="http://www.w3.org/2000/svg"
     viewBox="0 0 200 220"
     width="400" height="440" role="img" aria-label="BioGuard Sentinel Logo">
  <defs>
    <linearGradient id="gLight" x1="0" x2="1" y1="0" y2="1">
      <stop offset="0" stop-color="#bfffe6"/>
      <stop offset="1" stop-color="#6fe3a0"/>
    </linearGradient>
    <linearGradient id="gDeep" x1="0" x2="1" y1="0" y2="1">
      <stop offset="0" stop-color="#00ffd6"/>
      <stop offset="1" stop-color="#00b37a"/>
    </linearGradient>

    <filter id="neon" x="-50%" y="-50%" width="200%" height="200%">
      <feGaussianBlur stdDeviation="4" result="blur"/>
      <feMerge>
        <feMergeNode in="blur"/>
        <feMergeNode in="SourceGraphic"/>
      </feMerge>
    </filter>
  </defs>

  <g id="shield">
    <path d="M100,8 L158,36 L170,78 L170,128 C140,162 110,184 100,188 C90,184 60,162 30,128 L30,78 L42,36 Z"
          fill="url(#gLight)" stroke="#1b6a3f" stroke-width="4" filter="url(#neon)"/>
    <path d="M100,20 L150,44 L158,78 L158,118 C132,148 110,166 100,170 C90,166 68,148 42,118 L42,78 L50,44 Z"
          fill="#0b3d2b" opacity="0.06" />
  </g>

  <g id="helix" transform="translate(100,95)">
    <path d="M-68,20 C-30,48 30,48 68,20 L68,-20 C30,-48 -30,-48 -68,-20 Z"
          fill="#0b7f56" opacity="0.95"/>
    <path d="M-72,18 C-40,36 40,36 72,18" stroke="#fff" stroke-width="6" fill="none" stroke-linecap="round"/>
    <path d="M-72,2 C-40,20 40,20 72,2" stroke="#fff" stroke-width="6" fill="none" stroke-linecap="round"/>
    <path d="M-72,-14 C-40,4 40,4 72,-14" stroke="#fff" stroke-width="6" fill="none" stroke-linecap="round"/>
    <g stroke="#ffffff" stroke-width="2" opacity="0.9" stroke-linecap="round">
      <line x1="-46" y1="-14" x2="-46" y2="18"/>
      <line x1="-20" y1="-8" x2="-20" y2="24"/>
      <line x1="6"  y1="-14" x2="6"  y2="18"/>
      <line x1="34" y1="-8" x2="34" y2="24"/>
    </g>
  </g>
</svg>
